<svg xmlns:xlink="http://www.w3.org/1999/xlink" xmlns="http://www.w3.org/2000/svg" x="0" y="0" width="22.5" height="40" filtersec="colorsb2880663243" class="image-svg-svg primary" style="overflow: visible;" fill="#333333"><svg xmlns="http://www.w3.org/2000/svg" viewBox="0 0 6.75 11.98" fill="#333333"><title>资源 9</title><path fill="#F7E700" d="M5.26 6.46v4.74l1.49-.22V1.31L5.26 6.46z"></path><path fill="#FF5454" d="M1.5.78l2.63 8.26-.51 1.73-.49.08L0 1 1.5.78z"></path><path d="M0 12h.3V3.25L0 2.31zm1.2-5.93v5.73h.3V7zm-.6 5.82h.3V5.13l-.3-.94z" fill="#00D6CF"></path><path d="M5.26.22L4.6 2.47 3.58 6l.15.47L5.56.18zm.6-.09l-2 6.81.14.47L6.16.09zM6.45 0L4.18 7.88l.15.47 1.09-3.77L6.75 0z" fill="#7F75FF"></path></svg></svg>