<svg width="41" height="41" viewBox="0 0 41 41" fill="none" xmlns="http://www.w3.org/2000/svg">
<path d="M32.9196 9.10541C30.6475 8.04625 28.1875 7.2775 25.625 6.83333C25.6025 6.83261 25.5802 6.83683 25.5595 6.84568C25.5388 6.85454 25.5204 6.86782 25.5054 6.88458C25.1979 7.44833 24.8391 8.18291 24.6 8.74666C21.882 8.33666 19.1179 8.33666 16.4 8.74666C16.1608 8.16583 15.8021 7.44833 15.4775 6.88458C15.4604 6.85041 15.4091 6.83333 15.3579 6.83333C12.7954 7.2775 10.3525 8.04625 8.06331 9.10541C8.04623 9.10541 8.02914 9.1225 8.01206 9.13958C3.36539 16.0925 2.08414 22.8575 2.71623 29.5542C2.71623 29.5883 2.73331 29.6225 2.76748 29.6396C5.84248 31.8946 8.79789 33.2612 11.7191 34.1667C11.7704 34.1837 11.8216 34.1667 11.8387 34.1325C12.5221 33.1929 13.1371 32.2021 13.6666 31.16C13.7008 31.0917 13.6666 31.0233 13.5983 31.0062C12.6246 30.6304 11.7021 30.1862 10.7966 29.6737C10.7283 29.6396 10.7283 29.5371 10.7796 29.4858C10.9675 29.3492 11.1554 29.1954 11.3433 29.0587C11.3775 29.0246 11.4287 29.0246 11.4629 29.0417C17.3396 31.7237 23.6775 31.7237 29.4858 29.0417C29.52 29.0246 29.5712 29.0246 29.6054 29.0587C29.7933 29.2125 29.9812 29.3492 30.1691 29.5029C30.2375 29.5542 30.2375 29.6567 30.1521 29.6908C29.2637 30.2204 28.3241 30.6475 27.3504 31.0233C27.2821 31.0404 27.265 31.1258 27.2821 31.1771C27.8287 32.2192 28.4437 33.21 29.11 34.1496C29.1612 34.1667 29.2125 34.1837 29.2637 34.1667C32.2021 33.2612 35.1575 31.8946 38.2325 29.6396C38.2666 29.6225 38.2837 29.5883 38.2837 29.5542C39.0354 21.8154 37.0366 15.1017 32.9879 9.13958C32.9708 9.1225 32.9537 9.10541 32.9196 9.10541ZM14.555 25.4712C12.7954 25.4712 11.3262 23.8483 11.3262 21.8496C11.3262 19.8508 12.7612 18.2279 14.555 18.2279C16.3658 18.2279 17.8008 19.8679 17.7837 21.8496C17.7837 23.8483 16.3487 25.4712 14.555 25.4712ZM26.4621 25.4712C24.7025 25.4712 23.2333 23.8483 23.2333 21.8496C23.2333 19.8508 24.6683 18.2279 26.4621 18.2279C28.2729 18.2279 29.7079 19.8679 29.6908 21.8496C29.6908 23.8483 28.2729 25.4712 26.4621 25.4712Z" fill="#52566B"/>
</svg>
